<?xml version="1.0" standalone="no"?>
<!DOCTYPE svg PUBLIC "-//W3C//DTD SVG 20010904//EN"
 "http://www.w3.org/TR/2001/REC-SVG-20010904/DTD/svg10.dtd">
<svg version="1.0" xmlns="http://www.w3.org/2000/svg"
 width="512.000000pt" height="512.000000pt" viewBox="0 0 512.000000 512.000000"
 preserveAspectRatio="xMidYMid meet">
<metadata>
Created by potrace 1.16, written by Peter Selinger 2001-2019
</metadata>
<g transform="translate(0.000000,512.000000) scale(0.100000,-0.100000)"
fill="#000000" stroke="none">
<path d="M4084 4621 c-58 -26 -111 -77 -146 -138 -16 -29 -31 -53 -33 -53 -2
0 -95 20 -207 45 -331 72 -365 77 -598 82 -221 5 -233 4 -605 -47 -555 -76
-920 -98 -1759 -107 -583 -6 -620 -7 -638 -25 -16 -16 -18 -36 -18 -178 0
-147 2 -162 20 -180 11 -11 29 -20 40 -20 19 0 20 -7 20 -152 0 -172 10 -207
71 -265 67 -63 68 -63 506 -63 705 0 1231 50 1871 176 l183 36 24 -26 c31 -34
78 -34 176 -1 99 34 143 65 179 128 29 51 30 56 30 185 l0 132 59 0 c110 0
423 -39 439 -55 3 -2 -39 -70 -92 -149 -300 -448 -666 -886 -1116 -1336 -333
-333 -520 -497 -1130 -990 -206 -166 -399 -326 -428 -354 -34 -32 -67 -78 -90
-125 -37 -75 -37 -75 -37 -206 l0 -131 37 -75 c46 -93 122 -168 215 -212 65
-30 74 -32 188 -32 153 0 170 8 427 191 593 424 914 697 1281 1092 496 533
880 1085 1198 1722 96 194 299 640 299 660 0 6 31 10 75 10 102 0 166 15 265
62 67 32 101 57 163 118 42 43 77 83 77 89 0 6 -30 31 -67 56 l-67 44 -50 -53
c-84 -88 -182 -136 -308 -150 l-58 -6 0 58 c0 102 -65 198 -164 243 -56 25
-176 25 -232 0z m192 -185 c32 -32 34 -38 34 -98 0 -38 -8 -88 -19 -119 -62
-180 -334 -747 -479 -999 -467 -815 -1086 -1526 -1830 -2102 -213 -165 -614
-445 -655 -458 -138 -41 -281 25 -339 157 -37 85 -23 216 32 293 11 16 172
151 358 301 677 548 837 686 1166 1009 612 601 1069 1173 1440 1803 135 228
151 247 213 247 38 0 50 -5 79 -34z m-796 -89 c91 -20 202 -44 248 -53 81 -18
116 -42 45 -31 -21 3 -101 15 -178 27 -188 28 -501 38 -530 17 -18 -14 -20
-30 -25 -197 l-5 -182 -28 -24 c-15 -13 -32 -24 -38 -24 -5 0 -9 80 -9 197 0
271 7 266 -265 219 -285 -49 -685 -94 -1045 -116 -91 -6 -445 -13 -787 -17
l-623 -6 0 40 0 41 673 5 c693 5 810 10 1267 57 157 17 478 58 645 84 17 2
134 3 260 1 219 -3 238 -5 395 -38z m-680 -321 c0 -101 -2 -115 -17 -120 -45
-13 -397 -79 -563 -105 -451 -72 -752 -98 -1332 -113 -516 -13 -529 -12 -554
47 -9 23 -14 72 -14 149 l0 114 688 5 c697 5 804 9 1192 53 134 14 439 56 535
73 28 5 53 9 58 10 4 0 7 -50 7 -113z"/>
<path d="M4080 4240 l0 -80 80 0 80 0 0 80 0 80 -80 0 -80 0 0 -80z"/>
<path d="M1175 1181 c-87 -40 -135 -120 -135 -223 1 -142 97 -238 240 -238
144 0 240 96 240 240 0 104 -53 187 -142 224 -52 22 -153 20 -203 -3z m155
-171 c11 -11 20 -33 20 -50 0 -17 -9 -39 -20 -50 -11 -11 -33 -20 -50 -20 -17
0 -39 9 -50 20 -11 11 -20 33 -20 50 0 17 9 39 20 50 11 11 33 20 50 20 17 0
39 -9 50 -20z"/>
</g>
</svg>
