<?xml version="1.0" standalone="no"?>
<!DOCTYPE svg PUBLIC "-//W3C//DTD SVG 20010904//EN"
 "http://www.w3.org/TR/2001/REC-SVG-20010904/DTD/svg10.dtd">
<svg version="1.0" xmlns="http://www.w3.org/2000/svg"
 width="512.000000pt" height="512.000000pt" viewBox="0 0 512.000000 512.000000"
 preserveAspectRatio="xMidYMid meet">
<metadata>
Created by potrace 1.16, written by Peter Selinger 2001-2019
</metadata>
<g transform="translate(0.000000,512.000000) scale(0.100000,-0.100000)"
fill="#000000" stroke="none">
<path d="M1890 5109 c-103 -28 -212 -96 -272 -172 -51 -65 -335 -636 -344
-693 -10 -67 33 -146 98 -180 22 -11 95 -14 368 -14 l340 0 0 -129 0 -128 -40
-7 c-26 -4 -44 -14 -52 -29 -9 -16 -14 -104 -18 -320 l-5 -298 -77 -34 c-177
-76 -328 -183 -483 -339 -136 -138 -218 -252 -301 -421 -121 -246 -167 -443
-168 -715 0 -177 11 -270 49 -418 114 -433 400 -800 799 -1021 90 -50 261
-116 375 -145 157 -39 256 -49 455 -44 150 4 201 10 300 32 244 56 474 166
661 315 125 100 284 280 372 421 266 428 314 997 123 1459 -88 214 -193 373
-355 536 -155 157 -309 265 -485 342 l-75 32 -5 298 c-4 216 -9 304 -18 320
-8 15 -26 25 -52 29 l-40 7 0 128 0 129 48 0 c47 0 122 28 153 56 15 13 23 0
89 -143 117 -255 158 -304 351 -434 131 -87 153 -96 203 -79 62 20 156 186
156 275 0 90 -50 175 -144 244 -50 37 -56 47 -144 237 -51 110 -92 202 -92
205 0 3 25 9 55 12 72 7 134 44 163 95 21 38 22 51 22 251 0 155 -4 220 -14
244 -15 37 -76 94 -109 102 -12 3 -294 4 -626 3 l-604 -3 -20 -27 c-22 -29
-18 -65 9 -92 14 -14 81 -16 589 -16 349 0 584 -4 599 -10 l26 -10 0 -184 c0
-173 -1 -186 -19 -196 -11 -5 -85 -10 -168 -10 -127 0 -154 -3 -193 -21 -85
-38 -132 -99 -171 -222 -21 -68 -31 -84 -69 -110 -23 -16 -89 -17 -861 -17
-648 0 -838 3 -841 12 -3 7 34 92 81 190 l85 178 334 0 c385 0 391 1 392 78 0
19 -8 40 -20 52 -19 19 -33 20 -326 20 l-305 0 27 50 c15 28 47 68 70 90 91
84 183 109 400 110 126 0 144 9 144 72 0 64 -14 68 -211 67 -96 0 -190 -5
-209 -10z m1699 -914 c57 -124 117 -245 133 -269 16 -24 53 -61 83 -81 51 -36
85 -83 85 -120 0 -28 -52 -115 -64 -108 -65 38 -194 134 -222 167 -43 50 -54
70 -166 311 -84 179 -88 192 -78 225 12 41 26 59 60 83 54 38 57 34 169 -208z
m-699 -275 l0 -130 -330 0 -330 0 0 130 0 130 330 0 330 0 0 -130z m-590
-1080 l0 -800 -175 0 c-173 0 -176 0 -200 -25 -30 -30 -32 -64 -4 -99 l20 -26
845 0 c536 0 852 -4 864 -10 50 -27 54 -375 6 -550 -32 -116 -118 -292 -185
-380 -102 -135 -263 -271 -406 -343 -229 -115 -530 -147 -777 -84 -427 111
-751 450 -838 878 -33 163 -23 446 17 477 10 7 49 12 100 12 70 0 86 3 103 20
30 30 27 83 -7 110 -25 20 -38 21 -128 18 -164 -5 -214 -46 -240 -194 -19
-107 -19 -339 0 -450 106 -606 643 -1054 1265 -1054 484 0 920 265 1140 691
100 195 140 364 140 593 -1 244 -33 350 -117 392 -35 18 -69 19 -490 22 l-453
3 0 799 0 800 110 0 110 0 0 -293 c0 -267 2 -295 18 -309 9 -9 61 -34 115 -56
580 -241 959 -868 898 -1485 -37 -361 -184 -672 -436 -922 -117 -116 -240
-202 -390 -276 -221 -107 -348 -138 -597 -146 -212 -7 -322 8 -503 68 -487
162 -851 551 -975 1044 -86 338 -52 670 100 991 152 323 432 591 757 726 54
22 106 47 116 56 15 14 17 42 17 309 l0 293 90 0 90 0 0 -800z m330 0 l0 -800
-90 0 -90 0 0 800 0 800 90 0 90 0 0 -800z"/>
</g>
</svg>
